# xmcd CD database file
#
# Track frame offsets:
#	150
#	13820
#	28915
#	44532
#	59100
#	73277
#	88092
#	103700
#	117005
#	131855
#	146920
#	161597
#	176910
#	187132
#
# Disc length: 2662 seconds
#
# Revision: 1
# Processed by: cddbd v1.4PL0 Copyright (c) Steve Scherf et al.
# Submitted via: CDex 1.51
#
DISCID=e30a640e
DTITLE=Maysa - Os Grandes Sucessos de Maysa
DYEAR=1900
DGENRE=Jazz
TTITLE0=Ouça
TTITLE1=Meu Mundo Caiu
TTITLE2=Por Causa de Você
TTITLE3=Adeus
TTITLE4=No Meio da Noite
TTITLE5=Suas Mãos
TTITLE6=Franqueza
TTITLE7=O Que
TTITLE8=Se Todos Fossem Iguais a Você
TTITLE9=Resposta
TTITLE10=Conselho
TTITLE11=Felicidade Infeliz
TTITLE12=O Barquinho
TTITLE13=Eu e a Brisa
EXTD=
EXTT0=
EXTT1=
EXTT2=
EXTT3=
EXTT4=
EXTT5=
EXTT6=
EXTT7=
EXTT8=
EXTT9=
EXTT10=
EXTT11=
EXTT12=
EXTT13=
PLAYORDER=
